<?xml version="1.0" encoding="UTF-8"?>
<svg version="1.1" viewBox="0 0 2048 879" width="190" height="80" xmlns="http://www.w3.org/2000/svg">
<path transform="translate(1012,9)" d="m0 0 8 3 4 5 2 5v24l-4 23-8 28-3 12 7 1 1 4-14 27-11 23-19 44-14 36-12 36-1 6 9-11 16-24 26-42 9-12 5-4 6 2 5 4 1 2v29l-3 35v29l3 14 4 4 7-1 8-6 9-11 9-14 12-22 13-30 11-30 8-27 5-24 1-9v-15l-4-8 1-5 2-2 8 1 6 7 2 5v21l-3 20-6 24-12 36-10 24-12 25-10 18-11 16-11 12-9 6-7 3h-8l-7-3-7-6-5-12-2-11v-27l3-41v-7l-12 20-14 22-14 21-11 14-8 8-5 3h-10l-4-3-1-4v-9l3-14 6-20 12-33 4-12-10 10-9 4h-9l-8-4-6-8-4-12-1-7v-25l4-53-5 5-15 24-16 25-11 16-8 10-8 8-6 3-8-1-3-7v-8l5-21 12-34 16-40 14-32 14-30 9-17 6-8 9 1-1 6-14 27-13 27-15 35-15 39-10 28-4 18 5-3 13-19 16-24 14-23 12-18 5-6 5-2 6 3 2 2 1 4v15l-4 55v16l2 13 3 8 3 2 8-1 11-8 10-12 9-16 8-16 9-19 11-27 9-27 7-27 3-22v-13l-3-10v-6z" fill="#E77F88"/>
<path transform="translate(17,483)" d="m0 0h37l5 8 8 24 8 27 3 6 2-2 12-36 9-25 4-2h35l4 4 4 11 14 44 3 6 4-9 12-37 6-16 4-3h38l2 1-2 10-21 62-19 57-5 11-2 2-6 1h-21l-7-2-5-8-9-26-9-27-3-7-4 9-12 36-7 19-5 5-5 1h-20l-8-2-3-4-17-50-24-72-3-10v-5zm14 6-4 1 3 12 31 93 5 16 3 5 9 2 9-1 5-5 18-55 10-30h4l7 19 12 36 11 32 5 3h14l4-2 6-16 17-54 14-41 4-13-1-1-16-1-4 2-7 19-13 40-9 24-2 4-2 1-3-10-16-47-8-26-3-5-9-2h-8l-6 2-4 9-12 36-12 34-4 8-4-8-17-50-8-26-3-4-5-1z" fill="#E97F90"/>
<path transform="translate(1085,483)" d="m0 0h30l4 4 12 35 8 27 1 2 4-8 16-49 5-10 3-1h34l4 4 5 13 12 39 4 10v2h2l1-6 20-60 4-2h38l1 5-12 36-13 38-14 43-6 15-3 5-8 2h-19l-8-2-4-8-12-35-5-15-5-12-3 7-14 43-7 18-4 3-5 1h-21l-7-2-4-8-36-108-7-22v-3zm5 6-1 4 12 36 13 40 15 45 4 3 15 1 5-3 6-16 25-74h2l30 90 5 2h15l5-5 4-10 16-50 14-43 6-17-1-2-5-1h-12l-4 2-6 17-20 59-4 10v2h-2l-3-10-13-38-12-36-4-5-4-1h-14l-5 3-5 13-11 35-13 36-2 2-5-14-12-35-10-32-3-6-3-2z" fill="#E9A8AD"/>
<path transform="translate(411,482)" d="m0 0h19l7 2 9 10 36 54 4 5v-49l1-20 4-1h37v140l-3 3-10 1h-18l-9-1-8-7-12-17-15-22-10-14-7-9-2 67-2 2-12 1h-20l-5-2-2-4-1-9v-99l1-28 4-2zm3 7-8 1-1 1v124l2 2h17l1-1 1-81 1-11 5 5 8 10 14 20 11 17 15 22 7 10 6 7 7 2h16l3-1v-125l-1-1h-19l-1 93-5-5-8-10-22-32-26-39-5-6-8-2z" fill="#E4979D"/>
<path transform="translate(1788,482)" d="m0 0h34l48 1v36l-1 2-5 1h-67l1 6 18 1 34 1 2 7v30l-1 1-19 1h-36l1 17 65 1 7 1 1 2v34l-1 2-19 1h-89l-6-2-1-5v-135l1-2zm-21 8-1 75v48l1 3 3 1h88l2-1v-19l-72-1-1-6v-31l55-1v-19h-55v-29l73-1v-19z" fill="#E59AA0"/>
<path transform="translate(1316,483)" d="m0 0h112l1 1v34l-2 3-54 1-17 1v5l8 1 45 1 2 3v34l-1 1-55 1v18l73 1 1 2v35l-1 1-28 1h-80l-5-2-1-5v-135zm15 6-5 1-1 10v116l1 1h94l1-9v-10l-1-1-73-1-1-37h33l23-1v-19l-54-1-1-1-1-8v-20h74v-19l-24-1z" fill="#E4969C"/>
<path transform="translate(716,483)" d="m0 0h110l1 1v24l-1 12-1 1-70 1-1 1v7h53l1 2 1 13v22l-1 1-55 1v18l72 1 1 1 1 19-1 16-1 2-28 1h-79l-4-1-2-7-1-22v-88l1-24zm22 6-15 1v126l1 1h94v-20l-73-1-1-6v-17l1-13 54-1 1-1v-19l-56-1v-27l28-1 46-1v-19l-22-1z" fill="#E59BA0"/>
<path transform="translate(1012,9)" d="m0 0 8 3 4 5 1 6v21l-3 16-3 8-2 9-4 10-5 18-3 7-6 12-3 1-3 10-8 16-11 23-6 12-4 4v7l-4 4h-2l1 4-4 6-3 5-8 7-7 3h-9l-8-4-6-8-4-12-1-7v-25l4-53-5 5-15 24-16 25-11 16-8 10-8 8-6 3-8-1-3-7v-8l5-21 12-34 16-40 14-32 14-30 9-17 6-8 9 1-1 6-14 27-13 27-15 35-15 39-10 28-4 18 5-3 13-19 16-24 14-23 12-18 5-6 5-2 6 3 2 2 1 4v15l-4 55v16l2 13 3 8 3 2 8-1 11-8 10-12 9-16 8-16 9-19 11-27 9-27 7-27 3-22v-13l-3-10v-6z" fill="#E66D80"/>
<path transform="translate(1916,482)" d="m0 0h65l14 2 10 5 10 9 6 9 4 9 1 4v19l-3 11-5 9-7 8-4 4 15 26 12 22 2 6-1 1-9 1h-29l-6-2-8-11-14-25-7-10h-29v45l-2 2-6 1h-27l-5-2-1-3-1-24v-89l1-25 1-1zm-12 8-1 56v62l1 8 5 1h13l1-1 1-46 24-1h14l8 2 7 10 15 26 6 8 6 2h17l-2-6-15-25-9-16-1-4 11-8 6-7 4-10 1-6v-11l-3-12-6-9-9-8-10-4-5-1z" fill="#E69EA3"/>
<path transform="translate(1607,482)" d="m0 0h11l8 2 7 14 11 28 12 30 1 2h2l11-27 15-38 4-8 2-2h41l2 1-3 11-16 38-16 39-15 37-8 16-7 2h-23l-6-2-5-8-11-26-19-47-15-37-8-19v-4l6-1zm-4 7-4 1 1 7 12 31 12 30 15 38 7 17 4 3 5 1h10l5-3 8-16 12-31 30-75v-2h-20l-5 8-15 39-18 43-2 5h-2l-2-4-15-36-19-49-4-6-3-1z" fill="#EA8394"/>
<path transform="translate(1017,692)" d="m0 0 4 1 2 4-15 30-18 41-11 27-11 30-3 11v4l8-10 10-16 10-15 11-18 7-10 8-9 4 2 5 5v18l-3 41 1 21 3 10 5 1 6-4 7-7 9-13 10-17 11-24 11-30 7-25 3-16v-17l-2-7v-6l4-2 5 3 4 6 2 8-1 14-4 21-7 24-8 23-9 20-10 20-11 17-9 11-9 8-7 3-8-1-8-7-4-9-2-9v-24l2-29v-8l-8 13-14 22-13 19-9 11-8 6-5 1-5-3-1-3v-9l4-18 12-32 17-42 14-30 8-16 6-8z" fill="#E76F82"/>
<path transform="translate(852,483)" d="m0 0h92l12 3 10 6 7 7 6 10 4 10 1 5v12l-2 10-6 12-10 11-2 2 12 21 9 15 9 17v2l-8 1h-32l-6-3-9-14-9-16-9-14-1-1h-29l-1 46-1 1-11 1h-21l-6-2-2-5v-135zm30 6-21 1-1 67v56l1 4h20l1-30v-17h43l5 5 24 40 3 2h21l1-2-15-26-12-21v-2l9-6 7-7 5-12 1-7v-10l-2-10-6-10-7-7-12-6-3-1-13-1z" fill="#F1B8BD"/>
<path transform="translate(886,719)" d="m0 0h7l1 1-1 8-5 13 57 1 4 2v8h-53l-12 1-5 11-12 36-10 33-6 22-6 2-4-3 2-12 7-25 5-17-1-1-12 5-4 2-7 11-8 7-4 2h-6l-8-6-2-4 1-6 6-7 4-2 6-1-2-4-6-1-16 16h-9l-6-5-4 2-7 3-7-2-3-5v-8l4-15 4-10 4-1 7 4-1 5-5 12-2 6 5-4 9-14h7l3 2-1 8-2 10 5-4 6-8 11-10 6-4 3-1h7l6 3 3 4v7l-4 1-5-3h-6v4l5 2 7 6 5-2 10-9h8l5-12 7-19 1-2-4 1-14 1h-16l1-8 1-2 5-1 30-2 8-19zm-30 75 1 2zm-37 15m-1 1-1 2 2 2v-4z" fill="#E78089"/>
<path transform="translate(1520,482)" d="m0 0h15l9 2 4 5 10 24 32 80 11 30-1 3-7 1h-26l-8-1-5-10-3-7-2-1h-48l-5 10-3 7-7 2h-24l-10-1-1-4 5-16 24-60 13-32 11-27 5-4zm2 7-7 2-8 18-8 21-13 32-14 35-7 17v2l7 1h13l4-4 5-13 1-3 63 1 9 18 4 1h15l1-5-14-36-11-27-14-35-7-18-5-6-6-1z" fill="#E97F90"/>
<path transform="translate(293,482)" d="m0 0h14l9 2 4 5 14 34 22 56 9 23 6 17 1 6-7 2h-28l-7-2-5-11-2-5-3-1h-48l-7 16-5 3h-26l-10-1-1-1 1-9 13-33 17-42 11-27 10-25 2-4 4-2zm3 7-9 2-5 10-12 31-12 29-19 47-2 5v3l4 1h16l4-5 5-13 1-1h62l3 4 5 12 5 3h14l3-2-9-25-11-27-16-40-10-26-4-6-2-1z" fill="#EA8292"/>
<path transform="translate(589,482)" d="m0 0h24l18 1 14 3 14 6 11 8 7 8 7 14 3 11 1 10v19l-2 17-5 15-7 10-9 9-12 6-18 4-15 3-17 1h-45l-5-3-1-3-1-15v-113l1-9 3-1zm-25 8v126l3 1h56l17-3 11-4 10-6 7-7 7-14 3-16v-28l-4-16-6-12-9-9-10-6-17-5-6-1z" fill="#E7A0A5"/>
<path transform="translate(1256,711)" d="m0 0h8l1 4-20 61-14 41-6 15-3 4-5-2-1-1v-9l4-11v-3l-9 9-7 1-5-3-2-3-1-7h-3l-5 4-7 1-7-6-1-6 2-10h-3l-2 4-11 14-5 4h-5l-1-1v-8l1-5h-10l-3 1-2 4-8 7-2 1h-7l-5-4-1-2v-14l5-10 6-5h8l7 6 3 5v2l6-4 10-1 2-10 3-4 7 1 1 8 8-4 8 1 3 3 1 7-4 14 6-2 2-4 5-8 2-2 8-3 8-5 5 1 6 1 2-6 9-20 14-35zm-132 77-3 4v8l4-1 1-2v-8zm92 2-6 9-1 5 4-2 6-8 1-4z" fill="#E67E88"/>
<path transform="translate(725,694)" d="m0 0h20l11 4 7 8 3 9v14l-4 20-7 20-10 22-8 14-10 15-12 16-11 12-12 11-12 6-4 1h-8l-9-4-6-7-3-7v-7l4-11 8-11 11-12 10-9 16-12 15-10 10-5 6 1 2 5-8 7-14 9-18 13-10 9-8 7-8 10-4 8v8l2 5 5 2h7l10-6 10-8 8-8 12-16 11-18 12-23 10-25 5-22v-12l-4-7-6-4-11-1-16 3-11 4-11 6-11 9-5 1-2-2 1-8 8-8 13-8 12-5z" fill="#E6677C"/>
<path transform="translate(22,488)" d="m0 0 9 1-4 1 35 105 5 16 2 4 9 2 9-1 4-4 18-55 10-30 4-2 3 4 29 85 4 2h14l4-1 1-2 2 3 2-1v7h2l1-5 15-44 2-2-2 9-13 38-3 6-2 2-6 1h-21l-7-2-5-8-9-26-9-27-3-7-4 9-12 36-7 19-5 5-5 1h-20l-8-2-3-4-17-50-23-69v-3h2l-1-6z" fill="#ED9FA6"/>
<path transform="translate(1012,9)" d="m0 0 8 3 4 5 1 6v21l-3 16-3 8-2 9-4 10-5 18-3 7-6 12-3 1-3 10-8 16-11 23-6 12-4 4v7l-4 4h-2l1 4-4 6-3 5-8 7-7 3h-9l-8-4-6-8-4-12-1-7v-25l4-53-7 7 2-9-1-1-1-2h-3l-1 2-2-1 9-13 5-4 7 2 3 3 1 4v15l-4 55v16l2 13 3 8 3 2 8-1 11-8 10-12 9-16 8-16 9-19 11-27 9-27 7-27 3-22v-13l-3-10v-6z" fill="#E67E87"/>
<path transform="translate(414,483)" d="m0 0h21l8 7 11 16 28 42 4 5v-49l1-20 4-1h36v135l-1 4-5-1-2-4 1-126-21-1v79l-1 14-4-2-10-13-22-32-26-39-4-5-8-2-18-1-2-2-6-1 2-2z" fill="#E7A2A7"/>
<path transform="translate(1168,483)" d="m0 0h34l4 4 5 13 12 39 4 10v2h2l1-6 20-60 4-2h38l1 5-6 18h-2l-3 11-22 65h-2l-1-2-3 8h-2l1-9 12-36 16-49 1-5-19 1-3 1-6 17-20 59-5 12h-2l-6-16-12-36-11-32-3-4-4-1h-14l-6 3-7 19-5 16-7 2 1-8 11-34 1-4z" fill="#E77284"/>
<path transform="translate(591,509)" d="m0 0h28l16 2 10 4 7 6 4 8 2 8v31l-2 10-6 10-7 5-10 3-8 1h-38l-3-2-1-6v-78l1-1zm3 13-1 1v63l1 1h35l10-4 5-6 2-8v-33l-3-7-4-4-7-2-14-1z" fill="#E59BA1"/>
<path transform="translate(772,509)" d="m0 0h45v1l-5 1h-10l-1 3-10 3 6 2 22 1v1l-64 1-1 1v7h53l1 2 1 13v22l-1 1-55 1v18l72 1v1l-26 1-4 4-7 1 27 1v1h-70l-2-7v-17l1-13 1-1 54-1 1-19h-53l-3-1-1-2v-25l1-1z" fill="#E4959B"/>
<path transform="translate(1099,692)" d="m0 0 6 3 4 6 2 8-1 14-4 21-7 24-8 23-9 20-10 20-11 17-9 11-9 8-7 3-8-1-8-7-4-9-2-9v-24l1-13h1l1 26 3-16v-11l5-8 1-11h1v13l-2 28 1 21 3 10 5 1 6-4 7-7 9-13 10-17 11-24 11-30 7-25 3-16v-17l-2-7v-6z" fill="#E8868F"/>
<path transform="translate(1765,491)" d="m0 0h2v125h93v-19h-72v-36l2 3 4 18 3 4 65 1 7 1 1 2v34l-1 2-19 1h-89l-6-2-1-5v-48h1l1 40 2 3 5-2 1-1z" fill="#E4979C"/>
<path transform="translate(1316,483)" d="m0 0h112l1 1v34l-2 3-54 1h-19l1 7 1 4 3 1h11l3-2h36l1 3v30l-5-2-2-5 1-18-56-1-2-2-1-8v-11l1-9h74v-19h-24l-36-1h-36l-9-1z" fill="#E5999E"/>
<path transform="translate(191,483)" d="m0 0h38l2 1-2 10-21 62-5 15h-2l-3 11-12 35-2 5h-2l-1 2v-7h-3l1-9 12-37 11-35 11-32 4-13-16-1-3 1-7 19-13 40-4 10h-2l-1 5-4-1 1-10-1-5 2-10 12-37 6-16z" fill="#E87789"/>
<path transform="translate(1488,527)" d="m0 0 1 4-2 11-5 12-4 11-3 11 3-4 1-2h4l-3 10-14 34-1 2h20l3-3 5-13 2-3h63l4 6 5 12 4 1h15l-1-6-4-11 1-3 8 20 5 10-2 1h-26l-8-1-5-10-3-7-2-1h-48l-5 10-3 7-7 2h-24l-10-1-1-4 5-16 24-60z" fill="#E69BA1"/>
<path transform="translate(1607,482)" d="m0 0h11v1l-13 2 1 2 11 1 5 5 2 5-1 3-5-10-3-1h-16l6 18 20 50 15 38 7 17 3 2 5 1h10l5-3 4-8 1 3 1 1 3-1 1 3 6-12 1 3-10 22-3 2-5 1h-23l-6-2-5-8-11-26-19-47-15-37-8-19v-4l6-1z" fill="#E4969C"/>
<path transform="translate(2013,512)" d="m0 0 2 2 2 8v17l-2 9 4-1 1 3h2l-1 4-7 10-7 6 6 11 14 25 8 16 1 3-1 1-9 1h-29l-6-2-8-11-14-25-7-10h-29v45h-1l-1-46-2-8h-4v42l-1 5-2-1 1-46 1-1 24-1h14l8 2 7 9 16 28 6 8 5 1 17 1-13-23-9-15-6-12 4-4 9-7 6-9 3-12v-11z" fill="#EB979E"/>
<path transform="translate(1315,761)" d="m0 0h3l6 14v2l4 2 1 5-6 12-2 7 8-4 8-9 6-7 7 1 1 1-1 7-8 11-8 7-6 3-10 1-5-2-4-8 1-8 2-9-24 15-10 6-8 3h-12l-7-6-1-3v-11l5-10 5-4 5-2h7l6 4 1 3v8l-3 5v1l9-6 8-6 9-5 8-12zm-51 37 1 3 7-2v-1z" fill="#E68089"/>
<path transform="translate(1788,482)" d="m0 0h34l47 1v26l-7-1v-18l-97 1v121l-3 3-5 1-2-4-1-40v-87l1-2z" fill="#E78089"/>
<path transform="translate(1314,485)" d="m0 0h1l1 119 1 19 2 1h8l4-2h12l18 2h53l13 1 1-26-6 1v14l-2 3v-19l-73-1-1-1v-37l33-1h23v-18h2v20l4 4 2 1-1-33-36 1-3 2h-11l-3-2-2-4v-7l2 1v5l8 1 45 1 2 3v34l-1 1-55 1v18l73 1 1 2v35l-1 1-28 1h-80l-5-2-1-5z" fill="#E69CA2"/>
<path transform="translate(1111,108)" d="m0 0 8 1 6 7 2 5v21l-3 20-5 20h-2l-2 10-9 26-13 31-12 25-7 12-7 2-2-2v-8l12-22 10-23 9-24 8-25 7-28 2-11v-24l-1-3h-3l-1-6z" fill="#E45F75"/>
<path transform="translate(527,483)" d="m0 0h1v140l-3 3-10 1h-18l-9-1-8-7-12-17-15-22-10-14-7-9-2 67h-1l-1-71-1-3v-11l-3-1-1 2-1 75h-1v-80l1-11h3l10 12 13 19 14 21 15 22 7 10 5 6 7 2h19v-125h1v127l2 3 4 1z" fill="#EAAEB2"/>
<path transform="translate(1256,711)" d="m0 0h8l1 4-20 61-14 41-6 15-3 4-5-2-1-1v-9l4-11v-3l-3 3-5 3h-3l2-6v-5l4-4 3-7 2-4-5 2-3 5-5 1-2 8-3 1-2-1 2-5 8-16 2-5 2 1 1-3 7 1h4l12-27 14-35z" fill="#E67B85"/>
<path transform="translate(724,771)" d="m0 0 6 1 2 5-8 7-14 9-18 13-10 9-8 7-8 10-4 8v8l2 5 5 2h7l10-6 10-8 8-8 8-11 1 3 4-1h5l2-5 3 1-12 16-11 12-12 11-12 6-4 1h-8l-9-4-6-7-3-7v-7l4-11 8-11 11-12 10-9 16-12 15-10z" fill="#E76E81"/>
<path transform="translate(1924,509)" d="m0 0h56l9 3 5 5 3 6v12l-5 10-6 3-5 1h-56l-2-3v-36zm10 13v15l1 1 7 1h33l8-1 2-3-1-10-3-3z" fill="#E59A9F"/>
<path transform="translate(249,577)" d="m0 0h3l-3 9-11 27-1 3h20l3-4 5-13 2-2h62l4 5 5 12 4 2h14l2-1-8-22 1-3 8 21 6 11v2l4-1 2-4 1 6-7 2h-28l-7-2-5-11-2-5-3-1h-48l-7 16-5 3h-26l-10-1 4-2 2-5 5-10 11-28z" fill="#E69CA2"/>
<path transform="translate(918,509)" d="m0 0 24 1 6 4 4 5 2 11-2 9-6 8-3 1-23 1-38-1-1-5v-33zm-28 13v16l1 1h48l3-1 1-2v-9l-3-5z" fill="#F0B5BA"/>
<path transform="translate(886,719)" d="m0 0h7l1 1-1 8-5 13 57 1 4 2v8h-53l-12 1-5 11-4 11h-2l-3 9-5 9-2-2 2-9 3-8 2-8v-10l2-4-4 1-14 1h-16l1-8 1-2 5-1 30-2 8-19z" fill="#E67C86"/>
<path transform="translate(564,484)" d="m0 0h64l14 1 15 6 11 7 7 7 7 12 5 16 1 10v19l-2 17-5 15-6 9h-3l-1-4-3 3h-2l2-7 6-12 3-16v-28l-4-16-6-12-8-8-10-6-17-5-15-2-14-1-30-1-3-2-6-1z" fill="#EA949C"/>
<path transform="translate(769,770)" d="m0 0 6 1 4 3-1 5-5 12-2 6 5-4 9-14h7l3 2-1 8-2 10 5-4 6-8 11-10 6-4 3-1h7l6 3 3 4v7l-4 1-5-3h-6l-5 2-1 5-6 1-1 4-15 15h-9l-6-5-4 2-7 3-7-2-3-5v-8l4-15 4-10z" fill="#E7828B"/>
<path transform="translate(1012,9)" d="m0 0 8 3 4 5 1 6v21l-3 16-3 8-2 9-4 10-5 18-3 7-6 12-3 1-3 10-8 16-11 23-6 12-4 4v7l-4 4h-2l1 4-4 6-3 5-3 3-4-1h-3l-3-1 13-13 3-5 2-5 8-13 8-15 11-24 11-27 9-27 7-27 3-22v-13l-3-10v-6z" fill="#E56378"/>
<path transform="translate(281,483)" d="m0 0h7v1l-6 1 7 2v2h7v1l-9 2-11 27-23 57-4 1-2 4-13 33-6 10-5 1 1-9 13-33 17-42 11-27 10-25 2-4z" fill="#E88790"/>
<path transform="translate(754,530)" d="m0 0h53l1 2 1 13v22l-1 1-55 1v18l72 1v1l-26 1-4 4-7 1 27 1v1h-70l-2-7v-17l1-13 1-1 54-1 1-17h1l1 18 5 1-1-29h-52z" fill="#EFADB3"/>
<path transform="translate(122,537)" d="m0 0 2 3 2 9 2 4 4 2v-6l2 3 14 41 7 21 4 2h14l4-1 1-2 2 3 2-1v7h2l1-5 15-44 2-2-2 9-13 38-3 6-2 2-6 1h-21l-7-2-5-8-9-26-9-27-3-7-3 3-1-8 3-14z" fill="#E98A92"/>
<path transform="translate(296,521)" d="m0 0 4 2 3 4 11 27 7 21v2l-18 1h-17l-9-1-1-3 7-21 11-27zm-1 30-5 8-1 7 1 1h14l-1-8-3-6-2-2z" fill="#E59BA1"/>
<path transform="translate(1099,692)" d="m0 0 6 3 4 6 2 8-1 14-4 21-7 24-8 23-9 20-3 1-2-2-1-5-1-2 2-8 11-30 7-25 3-16v-17l-2-7v-6z" fill="#E66B7F"/>
<path transform="translate(1525,521)" d="m0 0 4 1 4 8 12 31 4 12v4l-31 1-13-1 1-9 11-28zm0 28-4 5-3 9 1 4h14l-1-8-4-8z" fill="#E88A93"/>
<path transform="translate(1765,491)" d="m0 0h2v125h93v-18l2 4v14l-2 2-55 1 14 1 9 1 41 2v-33h1v34l-1 2-19 1h-89l-6-2-1-5v-48h1l1 40 2 3 5-2 1-1z" fill="#EAABB0"/>
<path transform="translate(1918,483)" d="m0 0h72l10 3 10 7 7 7 8 16 1 4v19l-3 11h-3l-2-2-4 1 1-6 1-4v-17l-2-10h-2l-6-9-8-7-10-4-7-2-76-1-1-2-6-2v-1z" fill="#E66C80"/>
<path transform="translate(1315,761)" d="m0 0h3l6 14v2l4 2 1 5-6 12-2 7 8-4 8-9 6-7 7 1 1 1-1 7-8 11-8 7-6 3-10 1-5-2-4-8 1-8 2-9-4 3-2-1 2-4-1-5-4 4h-3v2h-6l-8 6-2-1 7-6 11-6 8-12z" fill="#E7838C"/>
<path transform="translate(855,492)" d="m0 0h4v124h2v2l3 1-3 4h-6l-4-2-1-4v-108l3-8z" fill="#E28F95"/>
<path transform="translate(1115,484)" d="m0 0 3 1 6 16 9 28 7 22 4-8 16-49 4-9 1 3-12 37v4l5-1 11-33 3-3-3 10-12 38-13 36-3 3-4-8-12-36-12-38-1-5 3 4 5 15h3l1 1-1-7-6-17z" fill="#EFABB0"/>
<path transform="translate(1275,489)" d="m0 0h7l-1 8-25 76-3 9-1 6h2l2-8h3l-1 2h2l2-9 22-65 2-2-2 9-12 35-22 66-5 9-8 2h-19l-8-2-4-8v-3h2l1-6 2-1-2-9-3-9v-5l2 3 8 26 1 2 4 1h15l4-4 4-10 16-50 14-43 6-17v-1l-5-1z" fill="#F6D0D3"/>
<path transform="translate(1488,527)" d="m0 0 1 4-2 11-5 12-4 11-3 11 3-4 1-2h4l-3 10-14 34-1 2h20l3-1-2 7 5 1 2 2-7 2h-24l-10-1-1-4 5-16 24-60z" fill="#E5999F"/>
<path transform="translate(414,483)" d="m0 0h21l8 7 11 16 28 42 4 9 5 12 5 6 1 6-4-1-14-19-16-24-8-11-7-11-12-18-4-5-8-2-18-1-2-2-6-1 2-2z" fill="#E88790"/>
<path transform="translate(1608,483)" d="m0 0h16l4 4 11 26 15 38 3 12 1 2v9l4-7h4v6l-6 12h-2l-5-8-22-55-7-18-2-9-3-5-2-1-11-1-1-3-3-1z" fill="#E97F8F"/>
<path transform="translate(1019,762)" d="m0 0 4 2 5 5v18h-2v11l-5 8v13l-4 17h-1v-53l-8 13-14 22-3 4h-2l-1-6 4-7v-9l16-25 8-10z" fill="#E66B7F"/>
<path transform="translate(517,483)" d="m0 0h10v135l-1 4-5-1-2-4v-127l-5-2v-2l-3-1v-1z" fill="#E4576F"/>
<path transform="translate(1509,483)" d="m0 0h9l2 4 2 3-7 1-2 6-13 33-13 32-3 8h-5l-2 6h-3l4-15 4-10 5-12 1-8 2-9 11-28 4-8z" fill="#E88891"/>
<path transform="translate(871,484)" d="m0 0h79l12 5 10 9 6 9 5 12 1 5v12l-1 7-1 1h-8v-27h-2l-6-12-7-7-12-6-5-2-9-1-63-1z" fill="#EA9199"/>
<path transform="translate(121,525)" d="m0 0 4 2 7 19v9l-5-2-3-8-2-7-3 14v8l-7 19-13 38-4 7-3-1-1-1h-2v-5l2-3 5-17 13-40 10-30z" fill="#E87688"/>
<path transform="translate(726,484)" d="m0 0h99l1 7v29l-1 1-28-1-7-2 3-3 8-2 1-2 15-2 1-19h-22l-19-1-48-1v-2l-3-1z" fill="#E39398"/>
<path transform="translate(1168,483)" d="m0 0h34l4 4 5 13 3 14 3 10v5l-3 1 1 5h-2l-12-36v-2h-2l-4-6-4-1h-14l-6 3-7 19-5 16-7 2 1-8 11-34 1-4z" fill="#E77587"/>
<path transform="translate(869,759)" d="m0 0h1l1 9-4 13-3 7 1 4 8-17 1 3-14 44-9 33-6 2-4-3 2-12 7-25 9-30z" fill="#E67D86"/>
<path transform="translate(1178,540)" d="m0 0 1 4-17 50v5l4 2 13-38 1 3-15 45-5 12-4 3-5 1h-21l-7-2-4-8-3-9v-3l7 1-2-12-4-12 1-4 12 36 3 2 15 1 4-2 6-16z" fill="#F0B4B9"/>
<path transform="translate(1316,483)" d="m0 0h112v28l-2 2-5-4v-19h-25l-36-1h-36l-9-1z" fill="#E66B7F"/>
<path transform="translate(564,484)" d="m0 0h64l14 1 15 6 11 7 7 7 7 12v7l-3-4-2-3-3 4-3-3-6-9-9-8-10-5-14-4-15-2-14-1-30-1-3-2-6-1z" fill="#E77083"/>
<path transform="translate(1851,537)" d="m0 0h1v30l-1 1-19 1h-36v16l-3-3-4-18-1 32h-1l-1-6v-29l3-3h53l3 5 5 1z" fill="#E8A6AB"/>
<path transform="translate(1258,491)" d="m0 0 1 2-12 36-16 46-2 4h-2l-6-16-21-63 1-3 12 35v3h2l-1-5 2-1-1-8-3-10 1-4 10 32 4 10v2h2l1-6 2-2v6h2v-5l3-1v-2l4 1 2-10 13-38z" fill="#F2BEC3"/>
<path transform="translate(973,517)" d="m0 0 2 4v22l7 1-3 9-8 11-7 6 6 12 10 16v2h-2l-2 10-4-5-13-23-8-14 1-3 9-6 7-8 4-10 1-7z" fill="#F1BBC0"/>
<path transform="translate(1787,519)" d="m0 0 2 2 1 7 2 2 59 1v25l-1 8h-5l-3-4-1-21-53-1-1-6z" fill="#E67D87"/>
<path transform="translate(754,530)" d="m0 0h53l1 2 1 13v22l-1 1-55 1v17h-1l-1-20-1-3h-6l1-4 54-1 1-17h1l1 18 5 1-1-29h-52z" fill="#F1BABF"/>
<path transform="translate(1948,568)" d="m0 0h14l8 2 7 9 6 10-1 2-5-5h-4l-2 5-4-5-5-7h-29v45h-1l-1-46-2-8h-4v42l-1 5-2-1 1-46 1-1z" fill="#E9ABB0"/>
<path transform="translate(1831,483)" d="m0 0h38v26l-7-1v-18l-82-1-7-2-6-2v-1z" fill="#E45970"/>
<path transform="translate(772,509)" d="m0 0h45v1l-5 1h-10l-1 3-10 3 6 2 22 1v1l-64 1-1 1v7h-3l-1-6 3-4-2-4-5-3-1 2-1 21h-1v-25l1-1z" fill="#F0B3B8"/>
<path transform="translate(823,772)" d="m0 0h7l6 3 3 4v7l-4 1-5-3h-6l-5 2-1 5-6 1-1 4-13 13-3 1h-7l-1-3 4-2 9-15 14-13 6-4z" fill="#E56479"/>
<path transform="translate(876,742)" d="m0 0 1 4h3l4-1v6l-5 5-1 7-3 12h-2l-3 9-5 9-2-2 2-9 3-8 2-8v-10l2-4-4 1-14 1h-16l1-8 8-2h27z" fill="#E45B72"/>
<path transform="translate(991,802)" d="m0 0h1l1 7-4 7v6l2 1-8 11-10 13-7 6-7 2-5-3-1-3v-9l1-6h1l1 8h5l2-9 2-1v8l8-10 10-16z" fill="#E7808A"/>
<path transform="translate(711,509)" d="m0 0h1l1 86 1 21 2 7 2 1h8l5-1 45-1h26l22 1 1-34h1l1 19-1 16-1 2-28 1h-79l-4-1-2-7-1-22z" fill="#F4C6C9"/>
<path transform="translate(852,483)" d="m0 0h92v1l-73 1v2l62 1 9 1v1h-81v126h-2v-124h-4l-1 9-3 8h-1v-25z" fill="#EEA9AF"/>
<path transform="translate(1347,528)" d="m0 0 2 4 5-1 5 3h11l3-2h36l1 3v30l-5-2-2-5 1-18-56-1-1-1z" fill="#E77D87"/>
<path transform="translate(1975,585)" d="m0 0 4 2 1 3 4 1 11 19 2 5 5 2 23 2 1 3h-24l-3 3-9-1-10-15-9-16v-6z" fill="#E98F97"/>
<path transform="translate(1526,547)" d="m0 0h7l5 10 3 7 3 2 2-2 3 9v4l-31 1-13-1 1-9h1v8h6v-7l5-8 1 2v3l14 1-4-13-4-4-2 1 1-3z" fill="#E3959B"/>
<path transform="translate(427,536)" d="m0 0 4 3 1 11 1 3v59l-2 7-2 2-3-3v-78z" fill="#E57881"/>
<path transform="translate(589,482)" d="m0 0h24l18 1 6 1v1h-67l5 2 28 1 14 1v1l-55 1v9l-4 4-1 10-3 14h-1l-1-7v-37l3-1z" fill="#E88B93"/>
<path transform="translate(1857,589)" d="m0 0h11l1 8v26h-17l-29-1-9-1-10-1 1-2 55-1 1-1v-14l-1-6h-8l1-2h2v-4z" fill="#E57781"/>
<path transform="translate(1184,524)" d="m0 0 3 1v7l-3 13-3 17-4 9-10 30-2 1-1-2h-3l1-9 16-47 2-10z" fill="#E7838C"/>
<path transform="translate(249,577)" d="m0 0h3l-3 9-11 27-1 3h20l3-2-2 5-2 4 7-2 2 1-2 4-3 1h-26l-10-1 4-2 2-5 5-10 11-28z" fill="#E59BA0"/>
<path transform="translate(1916,482)" d="m0 0h65v1l-63 1-17 1 4 2v2h76v1l-79 1v55h-1l-1-22v-12l-2-2-3 4-1 5h-1v-36z" fill="#E99199"/>
<path transform="translate(1086,484)" d="m0 0h29l4 6 6 18v5l-3-2h-3l-6-17v-2l-5-2h-21v6h-2l2 9 4 11 1 4v5l-2-1-12-35v-4z" fill="#E7838C"/>
<path transform="translate(1314,485)" d="m0 0h1l1 119 1 19 2 1h8l4-2h12l18 2h53l13 1 1-13h1v13l-1 1-28 1h-80l-5-2-1-5z" fill="#F2BCC0"/>
<path transform="translate(871,484)" d="m0 0h79l5 2v2h-2v2l4 2 8 7 3 5-4-1-8-7-14-6-9-1-63-1z" fill="#E6677C"/>
<path transform="translate(726,484)" d="m0 0h99v2l-5 3-91-1v-2l-3-1z" fill="#E4576F"/>
<path transform="translate(769,770)" d="m0 0 6 1 4 3-1 5-4 9h-2v2h-2l-1 5-3 9 5 1v2h3v3l-6 1-5-2-3-5v-8l4-15 4-10z" fill="#E77284"/>
<path transform="translate(517,483)" d="m0 0h10v135l-1 4-5-1-2-4 1-119h1l1 104 2-6h2v-112h-9z" fill="#E57B84"/>
<path transform="translate(849,485)" d="m0 0h1l1 136 10 1 2-3-2-2h20v1l-8 2 3 2 12 2 1-9h1v10l-1 1-11 1h-21l-6-2-2-5z" fill="#F1B9BE"/>
<path transform="translate(1022,767)" d="m0 0 4 2 1 3v15l-1 11-5 8v13l-4 17h-1v-34l1-4 1-14 3-13z" fill="#E45E73"/>
<path transform="translate(1206,584)" d="m0 0 2 3 8 26 1 2 4 1h15l4-4 3-4-1 6-3 4-7 2v5h6l-1 2h-19l-8-2-4-8v-3h2l1-6 2-1-2-9-3-9z" fill="#F0B3B8"/>
<path transform="translate(973,517)" d="m0 0 2 4v22l7 1-3 9-8 11-3 3-8 1-1 3-6 1-2-6 11-8 6-7 4-10 1-7z" fill="#EBB2B6"/>
<path transform="translate(1343,783)" d="m0 0 7 1 1 1-1 7-8 11-8 7h-5v-2l-9 1 1-3h2v-2l5-1 1-4 8-9z" fill="#E45E74"/>
<path transform="translate(585,519)" d="m0 0 2 4 3 8 1 31v27l-1 2h-3l-1 2-1-1z" fill="#E5747F"/>
<path transform="translate(1256,711)" d="m0 0h8l1 4-6 19-7 5-5-1-2 6-4 9-3 1 3-9 11-28z" fill="#E56378"/>
<path transform="translate(1583,578)" d="m0 0 2 2 15 40 1 5-1 1h-5l-4-5-6-16-2-7-2-10v-5z" fill="#E88890"/>
<path transform="translate(883,571)" d="m0 0 3 3v2h2l1 20 1 9v10l-2 9-3 1-9-2-4-4 9-2 1-3z" fill="#E28E94"/>
<path transform="translate(296,521)" d="m0 0 4 2 3 4 1 7h-2l-1-2-4-1-1 9-2 4h8l4 2-1 3h-3l-1 1h-11l-2 6-6 11h-2l1-9 11-27z" fill="#E98292"/>
<path transform="translate(591,509)" d="m0 0h28l16 2 10 4 7 6 4 8 2 8v31h-1l-1-26-2-12-2-6h-2l-3-3-17-4-6-2-5-1h-11l-10-2-12-1v-1z" fill="#F2BEC3"/>
<path transform="translate(1179,563)" d="m0 0 1 3-15 45-5 12-4 3h-12l-1-4 3-3h7l3-10 4-12 6 4z" fill="#EAABAF"/>
<path transform="translate(355,579)" d="m0 0 2 2 11 29 2 5v9h-5l-5-9-4-10-3-10v-10h3z" fill="#E88891"/>
<path transform="translate(745,562)" d="m0 0 5 1 2 3-1 10 1 11 2 2 8 3 1 4h-19l-1-6v-17l1-10z" fill="#E5989E"/>
<path transform="translate(810,784)" d="m0 0h2l2 3 5-1-1 5-6 1-1 4-13 13-3 1h-7l-1-3 4-2 9-15 5-3z" fill="#E56479"/>
<path transform="translate(201,571)" d="m0 0 1 3-15 44-3 6-2 2-6 1h-21l-1-2h3v-7h13l10-2 2-1v7h2l1-5 15-44z" fill="#EEA5AB"/>
<path transform="translate(1110,118)" d="m0 0h2l2 3v24l-5 24-8 28-9 26-10 24-9 19-10 17-4 4 2-5 13-24 13-30 11-30 8-27 5-24 1-9v-15z" fill="#FEFEFD"/>
<path transform="translate(2006,589)" d="m0 0 4 4 11 18 3 4v2l3 1 2 4 2 1v2l4 1-9 1h-29l-6-2 2-1 6 1 1-3 7-1h17l2 1-1-2-23-2-5-2-2-4 4 3 5 1 17 1-13-23z" fill="#E8A6AB"/>
<path transform="translate(1306,779)" d="m0 0 3 3v5l-5 5-16 10-1 1h-6v-8l2-3 5-3 6-4 6 1v-2l3-1z" fill="#E5667B"/>
<path transform="translate(666,598)" d="m0 0 1 2-1 2h2l1-3h2l1 4 2 1-9 9-12 6-10 2 1-2 3-1-2-3h-9l4-2 11-4 10-6z" fill="#E8A5A9"/>
<path transform="translate(1581,596)" d="m0 0 3 4 6 16 5 10-2 1h-26l-8-1-2-5 10 1 17-1h5v-2l-24-1-1-7 3 4 4 1h15l-1-6-4-11z" fill="#E7A3A8"/>
<path transform="translate(1686,599)" d="m0 0 1 3-10 22-3 2-5 1h-23v-1l18-1 1-5 5-1-1-1h-15l-3-2h14l5-3 4-8 1 3 1 1 3-1 1 3z" fill="#EC9BA3"/>
<path transform="translate(1165,491)" d="m0 0 4 3-1 7-9 27-7 2 1-8 10-30z" fill="#E56478"/>
<path transform="translate(1215,778)" d="m0 0 7 1h4 2l-2 6-2 5-3-1v-3l-4 1-2 5-3 5-5 1-2 8-3 1-2-1 2-5 8-16 2-5 2 1z" fill="#E45D73"/>
<path transform="translate(1594,490)" d="m0 0 4 1 2 5 5 12 14 35v6l-4-5-12-28-7-18z" fill="#E98B94"/>
<path transform="translate(1187,527)" d="m0 0 2 3 3 9-1 4-2-8h-2l2 18 3 11 2 10 12 37-1 3-12-36-8-21-1-2-3 4 1-7 3-16z" fill="#F8DCDE"/>
<path transform="translate(1013,49)" d="m0 0h1v14l1 4-8 32-4 9-2-3-2 1 3-12 8-28z" fill="#E7848D"/>
<path transform="translate(886,719)" d="m0 0h7l1 1-1 8-3 8-6 6-5-4v-6l5-11z" fill="#E66A7E"/>
<path transform="translate(930,743)" d="m0 0h18l1 1v8h-17v-2h-10l-2-1v-3l7-2z" fill="#E45A71"/>
<path transform="translate(1560,605)" d="m0 0 3 1 2 8v4h17l7 1v2l-8 1-20 1-4-2-1-9z" fill="#E67D86"/>
<path transform="translate(1102,484)" d="m0 0h13l4 6 6 18v5l-3-2h-3l-6-17-3-5-9-1z" fill="#E46075"/>
<path transform="translate(1354,522)" d="m0 0 2 1v5l8 1 45 1 2 3v34h-1l-1-35-36 1-3 2h-11l-3-2-2-4z" fill="#EEBCC0"/>
<path transform="translate(122,537)" d="m0 0 2 3 1 5v8l3 4 2 15 13 39-1 3-8-23-9-27-3-7-3 3-1-8 3-14z" fill="#F6DADC"/>
<path transform="translate(1200,497)" d="m0 0 2 2 11 33v3h2l-1-5 2-1-1-8-3-10 1-4 9 29-1 3-2-1 1 2v6h-2l2 7-1 4-19-57z" fill="#F5CACE"/>
<path transform="translate(865,171)" d="m0 0v3l-2 4-2 7-5 9-5 3-4 2-5 1-1-3 3-7 3 1 5-5 10-14z" fill="#E67B84"/>
<path transform="translate(962,190)" d="m0 0 2 4-1 4-3 3h-2l1 4-4 6-3 5-3 3-4-1h-3l-3-1 13-13 3-5 1-4 3-1z" fill="#E45D74"/>
<path transform="translate(1925,575)" d="m0 0 2 4v5h4v30l-6 2z" fill="#E4576F"/>
<path transform="translate(249,553)" d="m0 0 1 4-2 6-1 8-3 9-6 16-3 5-5 1 6-17 12-29z" fill="#E59BA0"/>
<path transform="translate(724,819)" d="m0 0 3 1-8 11-1-2-10 4-5 6-3 5-8 5-4 3-3-1 5-5 10-9 8-9 4-6 1 3 4-1h5z" fill="#E7818A"/>
<path transform="translate(1123,115)" d="m0 0 3 3 1 3v21l-3 20-5 20h-1l-1-10 3-14 3-18 2-4v-14z" fill="#EEA9AF"/>
<path transform="translate(1925,570)" d="m0 0h4l3 8v40l-1 5-10-1-3-2v-2l5-1 1-5 1 4 5-3 1-29h-4l-2-9z" fill="#E67E87"/>
<path transform="translate(308,548)" d="m0 0 4 1 7 19 2 9h-5l-1-5h-2l-5-12-1-11z" fill="#E88790"/>
<path transform="translate(1663,549)" d="m0 0 1 3v2l2-3h2v12l1 3-2 5-2-3h-3l-3 7-2-1v-10l-2-5 1-3 1 2h2z" fill="#E98B94"/>
<path transform="translate(823,486)" d="m0 0h2v17l-6 4-1-16-41-2v-1h43z" fill="#E98790"/>
<path transform="translate(266,601)" d="m0 0 3 1 1 10-4 10-3 1h-3-4l1-4 3-7 4-9h2z" fill="#E98A93"/>
<path transform="translate(249,577)" d="m0 0h3l-3 9-11 27-1 3 19 1v1h-21v-9l11-28z" fill="#E8A5AA"/>
<path transform="translate(303,530)" d="m0 0 3 4 5 12-1 3h-2l-2 2-1-5-11-2 1-4 2-9 5 1 1 1z" fill="#EB8E9B"/>
<path transform="translate(289,542)" d="m0 0 2 3h14l1 4-3-1-2 2h-11l-2 6-6 11h-2l1-9 5-12 2-1z" fill="#E77386"/>
<path transform="translate(1607,482)" d="m0 0h11v1l-13 2 1 2 11 1 5 5 2 5-1 3-5-10-3-1-21-1-4-2-7 2-1-5 6-1z" fill="#EA979E"/>
<path transform="translate(488,503)" d="m0 0h1l2 12 2 11 2 1v13l-1-2h-2l-2 7-2 1z" fill="#E67781"/>
<path transform="translate(1788,561)" d="m0 0 2 3 4 19 1 12-1 1h-6z" fill="#E67781"/>
<path transform="translate(23,508)" d="m0 0 2 3 5 12 7 22v3h2l2 7 1 1 2 14h-2l-12-37-7-20z" fill="#E56F80"/>
<path transform="translate(1010,217)" d="m0 0h2l1 8 4 4v8l-3 6h-2v3h-2l-1 13h-1l1-22 1-19z" fill="#E4959B"/>
<path transform="translate(1093,215)" d="m0 0 1 3-12 29-9 19-10 17-4 4 2-5 13-24 13-30 5-12z" fill="#FFFFFE"/>
<path transform="translate(292,549)" d="m0 0h2l-1 6-2 4h-2l-2 6-4 11h-7l3-12 2-3-1 6 3-3 7-14z" fill="#E98C95"/>
<path transform="translate(196,490)" d="m0 0 2 1-7 19-13 40-4 10-1-3 16-50 5-15z" fill="#FFFFFE"/>
<path transform="translate(1867,487)" d="m0 0h2v22l-7-1v-16z" fill="#E67781"/>
<path transform="translate(1494,602)" d="m0 0 3 1-2 18-1 3-5-1-3-1 2-9 3-8h2z" fill="#E8868F"/>
<path transform="translate(1219,538)" d="m0 0 3 1 4 13 1 7v9l-1-3h-3l-1-5h-2l-2-10v-4h2z" fill="#E56A7D"/>
<path transform="translate(1164,485)" d="m0 0 1 3-14 43-7 21-3 1 1-5 14-41 6-18z" fill="#FFFFFE"/>
<path transform="translate(493,484)" d="m0 0h18l3 2v2l5 1 1 2-22-1-5-2h-5v-3z" fill="#E77F88"/>
<path transform="translate(627,520)" d="m0 0h7l7 3 4 4 2 6 1 26-1 10h-1l-1-33-3-7-3-3-7-2-14-1 3-2z" fill="#F5CDD1"/>
<path transform="translate(435,492)" d="m0 0 3 1 14 20 5 9 1 7-4-5-18-27z" fill="#EC919F"/>
<path transform="translate(823,772)" d="m0 0h7l3 2h-9l-4 5h-2v2h2l-2 6-4 1-2-4-6 3-3 3-2-1 13-12 6-4z" fill="#E7808A"/>
<path transform="translate(1421,490)" d="m0 0 1 3 3-1 3 4v15l-2 2-5-4z" fill="#E57983"/>
<path transform="translate(1426,599)" d="m0 0h2v16l-1 4-3 1-3-2 1-18z" fill="#E57781"/>
<path transform="translate(1178,540)" d="m0 0 1 4-23 68-3 6h-5l5-5 14-41z" fill="#FFFFFE"/>
<path transform="translate(883,519)" d="m0 0h1l2 9 1 3 1 16h-5l-1-7v-19z" fill="#E29096"/>
<path transform="translate(899,114)" d="m0 0 3 4 1 5-9 9-2-1-3 1 2-5z" fill="#E88790"/>
<path transform="translate(1240,616)" d="m0 0 1 2 4-2v7l-3 3-10-1-1-6z" fill="#E3949A"/>
<path transform="translate(660,840)" d="m0 0h1l2 10 1 3 5 2h7l7-4 2 1-5 5-9 2-10-2-1-3v-5l-1-1v-6z" fill="#EB99A0"/>
<path transform="translate(2006,589)" d="m0 0 4 4 11 18 4 7h-23l-5-2-2-4 4 3 5 1 17 1-13-23z" fill="#FFFFFE"/>
<path transform="translate(1167,486)" d="m0 0h11v2h16l1 2h-18l-6 3-2 2h-2l-2-3-1-4h2z" fill="#E7848D"/>
<path transform="translate(158,533)" d="m0 0 2 3 5 12 3-3v8l1 3-3 8-3-4-1-11-4-12z" fill="#F3C9CC"/>
<path transform="translate(978,600)" d="m0 0h3l4 7 2 8-4 1-4-4-3-4z" fill="#E4979D"/>
<path transform="translate(749,751)" d="m0 0 1 4-2 14-2 4h-2l-2 5-4 2 2-6z" fill="#E7858E"/>
<path transform="translate(1528,551)" d="m0 0h2v2h2l5 12v3l-19 1-5 1 5-9 1 2v3l14 1-4-13z" fill="#F5CED1"/>
<path transform="translate(903,111)" d="m0 0 7 3-2 1v5l-2 5-5 1-1 2-2-1 3-4h2l-3-6v-3h2z" fill="#E45970"/>
<path transform="translate(305,555)" d="m0 0 3 2 6 15v3l-4 1-2-2-3-15z" fill="#EFACB2"/>
<path transform="translate(430,535)" d="m0 0 3 1 7 12-1 2-5 1-3-5z" fill="#EFACB2"/>
<path transform="translate(158,620)" d="m0 0 4 1 3 1v3h17v1l-6 1h-21l-1-2h3z" fill="#E7A1A6"/>
<path transform="translate(1581,596)" d="m0 0 3 4 6 16v2h-25l-1-7 3 4 4 1h15l-1-6-4-11z" fill="#FFFFFE"/>
<path transform="translate(1924,526)" d="m0 0 2 2 2 5 2 13-5 1-1-5z" fill="#E67781"/>
<path transform="translate(291,533)" d="m0 0 2 3 4-2-2 7-1 3h8v1l-11 1h-3l-1-2z" fill="#E98F98"/>
<path transform="translate(1019,762)" d="m0 0 4 2 5 5v18h-1l-1-18-3-1-2 3-3 2-1-5z" fill="#EC98A0"/>
<path transform="translate(1161,770)" d="m0 0h5l1 5-2 4-5 2-1-1v-8z" fill="#E66A7F"/>
<path transform="translate(1221,560)" d="m0 0 2 2v3h3l2 4h2v8l-1 2h-2l-6-16z" fill="#ED9DA9"/>
<path transform="translate(1925,570)" d="m0 0h4l3 10-1 4h-4l-2-9z" fill="#E57781"/>
<path transform="translate(1219,786)" d="m0 0h2l2 4-1 6-3 5h-2l-2 4-1-3 6-12-4-1z" fill="#E67282"/>
<path transform="translate(713,484)" d="m0 0h13l3 2v2l-8 1h-6l-2 1z" fill="#E57882"/>
<path transform="translate(74,542)" d="m0 0 3 4 2 2 1 3 2 1-3 11-1-4h-2l-1-6v-6z" fill="#F4CACD"/>
<path transform="translate(427,572)" d="m0 0 2 3 1 12-2 21h-1l-1-28z" fill="#E4576F"/>
<path transform="translate(1222,539)" d="m0 0 2 2 3 10h2l1-6 2-2-1 7-3 12-2-3-3-14z" fill="#FFFFFE"/>
<path transform="translate(1661,554)" d="m0 0 1 3-3 18-2-1v-10l-2-5 1-3 1 2h2z" fill="#F6D1D4"/>
<path transform="translate(1137,546)" d="m0 0 2 3 1 4 4-1-2 13h-2l-3-12z" fill="#F0B6BB"/>
<path transform="translate(122,537)" d="m0 0 2 3 1 5v7l-5 1v-11z" fill="#FFFFFE"/>
<path transform="translate(1527,523)" d="m0 0 3 4-1 3-1-1-5 8-3 1 2-10z" fill="#E56579"/>
<path transform="translate(298,533)" d="m0 0 2 3 4 9-10-1 1-4z" fill="#FEFCFB"/>
<path transform="translate(914,107)" d="m0 0h1v14l-2 24h-1v-14l1-14-3 1 3-9z" fill="#EBA8AD"/>
<path transform="translate(876,739)" d="m0 0 1 3-4 3h-26l-7 1v-2l5-1 30-2z" fill="#E88C94"/>
<path transform="translate(963,585)" d="m0 0 5 5 4 5 2 5-4 1-7-12z" fill="#EAADB1"/>
<path transform="translate(1187,527)" d="m0 0 2 3 3 9-1 4-2-8h-2v13l-3-4 1-8z" fill="#F3C7CA"/>
<path transform="translate(1347,568)" d="m0 0 2 1 1 14v7l-2 3-1-5z" fill="#E67781"/>
<path transform="translate(1343,783)" d="m0 0h5l-5 5-7 6-6 7-2-1 9-10z" fill="#EDA1AA"/>
<path transform="translate(1018,774)" d="m0 0h1v10l-1 14-2 4v-19l-2 2 1-5z" fill="#F2C0C4"/>
<path transform="translate(732,807)" d="m0 0 3 1-6 9-1-2-4-1v-3z" fill="#E77F88"/>
<path transform="translate(743,788)" d="m0 0 3 1-9 16-2 1 1-7z" fill="#E98F97"/>
<path transform="translate(641,614)" d="m0 0 5 1 2 4-11 2 1-5z" fill="#E57983"/>
<path transform="translate(960,211)" d="m0 0h1v6l-5 7h-2v-6l2-1 2-5z" fill="#E55F75"/>
<path transform="translate(883,751)" d="m0 0h13v1l-12 1-5 11-2 5-1-3 2-7 1-4z" fill="#EA939B"/>
<path transform="translate(605,519)" d="m0 0 13 1 3 2h-26v-1z" fill="#EFACB2"/>
<path transform="translate(1187,535)" d="m0 0h2l2 5-1 10-1-2h-2z" fill="#E4868E"/>
<path transform="translate(23,508)" d="m0 0 2 3 5 12 1 7-1-2h-2l-5-15z" fill="#E56A7D"/>
<path transform="translate(38,553)" d="m0 0h2l2 3 2 14h-2l-4-12z" fill="#E5697C"/>
<path transform="translate(1210,797)" d="m0 0 1 2-2 5 7-5-2 4-6 7h-2v-5z" fill="#E5969C"/>
<path transform="translate(1674,605)" d="m0 0 1 3-5 9-1 1h-15l-3-2h14l5-3z" fill="#FFFFFE"/>
<path transform="translate(483,551)" d="m0 0 3 2v2l2 1 3 3v8l-3-3-5-10z" fill="#F1B7BC"/>
<path transform="translate(1315,484)" d="m0 0h7l5 3v2l-12-1z" fill="#E67781"/>
<path transform="translate(39,536)" d="m0 0h2l5 15v5l-3-4-4-13z" fill="#E57081"/>
<path transform="translate(1106,206)" d="m0 0 2 1-2 11-2 5h-2l-2 2 1-5z" fill="#E67581"/>
<path transform="translate(1119,167)" d="m0 0h3l-1 8-2 7h-1l-1-10z" fill="#F0AFB5"/>
<path transform="translate(296,545)" d="m0 0h9l1 4-3-1-2 2h-7l3-3z" fill="#E57882"/>
<path transform="translate(177,613)" d="m0 0 1 3-2 2-12 1h-8v-3h17l4-1z" fill="#FCF5F4"/>
<path transform="translate(1464,615)" d="m0 0 8 1h13l3-1v2l-2 1-22 1z" fill="#F7D7DA"/>
<path transform="translate(683,851)" d="m0 0 2 1-5 5-3 1-9-1-3-2 1-2 3 2h7z" fill="#ECA5AB"/>
<path transform="translate(1126,791)" d="m0 0h1v8l-2 3-6-1v-8h2v7l3-1z" fill="#E69AA0"/>
<path transform="translate(1242,608)" d="m0 0 1 3-3 6-7 2-9-1v-1l12-1 4-4z" fill="#FFFFFE"/>
<path transform="translate(960,562)" d="m0 0v3l-3 3h-3l-1 4-2-6z" fill="#F3C0C5"/>
<path transform="translate(1095,236)" d="m0 0h1v6l-4 9-2-4z" fill="#E67482"/>
<path transform="translate(158,533)" d="m0 0 2 3 5 12 1 3-3 1-5-15z" fill="#FFFFFE"/>
<path transform="translate(1216,776)" d="m0 0 5 1 6 1-2 3-10-3v5l-4-4z" fill="#EDAAAF"/>
<path transform="translate(1527,531)" d="m0 0h1l3 13-7 1v-2h2z" fill="#FFFFFE"/>
<path transform="translate(427,523)" d="m0 0 4 3v4l-5 2v-8z" fill="#E9949B"/>
<path transform="translate(1564,611)" d="m0 0 3 4 15 2v1h-17z" fill="#F4CCCF"/>
<path transform="translate(236,614)" d="m0 0 1 2 19 1v1h-21z" fill="#F6D2D5"/>
<path transform="translate(1315,604)" d="m0 0h1l1 19 3 3-5-1z" fill="#EFAEB4"/>
<path transform="translate(119,547)" d="m0 0h1v6l4 1v2h-2l-3 4-1-8z" fill="#EA9BA2"/>
<path transform="translate(1212,523)" d="m0 0 3 3v9h-2l-2-9z" fill="#E6717F"/>
<path transform="translate(814,801)" d="m0 0h3v2l-5 2-6 5v-3l6-5z" fill="#F0B3B8"/>
<path transform="translate(1095,740)" d="m0 0h1l-2 18h-3l2-10z" fill="#E98D95"/>
<path transform="translate(1020,770)" d="m0 0h1v7l-1 5h-1l-1-6-2 3 1-6h2z" fill="#E3858D"/>
<path transform="translate(714,620)" d="m0 0 5 5 11 1v1h-12l-4-1z" fill="#F7D5D8"/>
<path transform="translate(1257,579)" d="m0 0 2 1-1 8h-2l-1-6z" fill="#E67883"/>
<path transform="translate(1526,531)" d="m0 0h1v10l-1 2h-2l-1 2 2-10z" fill="#EFACB2"/>
<path transform="translate(818,811)" d="m0 0" fill="#EFACB2"/>
</svg>
